# xmcd
# 
# Track frame offsets:
#     150
#     16325
#     36107
# 
# Disc length: 734
# 
# Revision: 0
# Processed by: cddbd v1.5.2PL0 Copyright (c) Steve Scherf et al.
# Submitted via: fre:ac v1.0.27
# 
DISCID=1902dc03
DTITLE=DollsHead - It's Over, It's under
DYEAR=1998
DGENRE=Alternative
TTITLE0=It's over, it's under
TTITLE1=Idiots Convention
TTITLE2=Freedom, love minus 10
EXTD=
EXTT0=
EXTT1=
EXTT2=
PLAYORDER=
